<?xml version="1.0" encoding="UTF-8" standalone="no"?>
<!DOCTYPE svg PUBLIC "-//W3C//DTD SVG 1.1//EN" "http://www.w3.org/Graphics/SVG/1.1/DTD/svg11.dtd">
<svg version="1.1" xmlns="http://www.w3.org/2000/svg" xmlns:xlink="http://www.w3.org/1999/xlink" preserveAspectRatio="xMidYMid meet" viewBox="39.87948179549129 435.21804417416104 500.650766609882 106.05064565587736" width="496.13" height="100.8"><defs><path d="M536.68 538.27C537.15 538.27 537.53 537.89 537.53 537.42C537.53 517.43 537.53 458.32 537.53 438.34C537.53 437.87 537.15 437.49 536.68 437.49C437.92 437.49 142.49 437.49 43.73 437.49C43.26 437.49 42.88 437.87 42.88 438.34C42.88 458.32 42.88 517.43 42.88 537.42C42.88 537.89 43.26 538.27 43.73 538.27C142.49 538.27 437.92 538.27 536.68 538.27Z" id="beUSJOwmd"></path><linearGradient id="gradientarWN0uAyi" gradientUnits="userSpaceOnUse" x1="538.59" y1="533.8" x2="42.36" y2="478.76"><stop style="stop-color: #775c27;stop-opacity: 1" offset="0%"></stop><stop style="stop-color: #7e622a;stop-opacity: 1" offset="19.099554905588942%"></stop><stop style="stop-color: #775f30;stop-opacity: 1" offset="29.810830629561973%"></stop><stop style="stop-color: #83611f;stop-opacity: 1" offset="42.68397173059914%"></stop><stop style="stop-color: #836223;stop-opacity: 1" offset="56.72705887905038%"></stop><stop style="stop-color: #84662a;stop-opacity: 1" offset="85.97642306537553%"></stop><stop style="stop-color: #7e5c19;stop-opacity: 1" offset="100%"></stop></linearGradient><mask id="maska1JEzfe4M" x="38.35" y="432.95" width="503.72" height="109.85" maskUnits="userSpaceOnUse"><rect x="38.35" y="432.95" width="503.72" height="109.85" fill="white"></rect><use xlink:href="#beUSJOwmd" opacity="1" fill="black"></use></mask><path d="M41.97 456.45L64.09 455.29L87.36 454.13C87.37 454.12 87.38 454.12 87.38 454.12C101.31 452.58 115.35 452.15 129.35 452.85C129.65 452.87 130.39 452.9 131.59 452.96L152.54 452.96L173.49 454.13L195.61 452.96L217.72 452.96L238.67 450.64L260.78 450.64L284.06 451.8L306.17 452.96L327.12 452.96L348.07 455.29C348.08 455.29 348.09 455.29 348.09 455.29C361.21 457.6 374.58 458.07 387.82 456.68C388.11 456.65 388.83 456.57 389.97 456.45L410.92 455.29L433.04 454.13L453.99 455.29L476.1 457.61L495.89 457.61L515.67 456.45L536.62 454.13" id="b1KZR8hLH"></path><path d="M41.88 494.59L62.88 495.93C63.99 495.99 64.68 496.03 64.96 496.05C79.07 496.86 93.23 495.93 107.12 493.26C107.13 493.26 107.16 493.26 107.21 493.25L128.21 491.9L149.21 490.56L171.38 493.25L192.37 493.25L214.54 491.9L236.71 491.9L256.54 493.25C265.8 492.62 271.59 492.23 273.91 492.07C275.54 491.96 277.19 492.05 278.8 492.35C282.75 493.06 278.39 492.27 278.89 492.36C291.91 494.73 305.22 495.03 318.33 493.25C318.33 493.25 318.35 493.25 318.37 493.25L340.54 493.25L361.54 491.9L383.7 490.56L405.87 490.56C405.87 490.56 405.88 490.56 405.88 490.56C419.81 491.45 433.81 490.57 447.52 487.94C447.59 487.93 443.46 488.72 447.61 487.93C447.78 487.89 447.95 487.88 448.12 487.88C452.27 487.88 448.69 487.88 448.9 487.88C448.9 487.88 488.65 490.56 488.65 490.56C488.65 490.56 488.67 490.56 488.7 490.56C488.71 490.56 488.71 490.56 488.71 490.56C502.66 491.45 516.67 490.86 530.5 488.78C531.3 488.66 533.31 488.36 536.53 487.88" id="bLW8IihV4"></path><path d="M41.97 472.53L68.59 473.69L92.89 473.69L114.87 472.53L136.86 470.2L157.69 467.88L178.52 466.72L199.35 465.55L220.18 466.72L241.01 467.88L261.84 470.2L284.98 469.04L306.97 470.2L326.64 472.53L347.47 473.69L368.3 473.69L389.12 474.86L411.11 474.86L433.1 473.69L453.93 472.53L474.76 472.53L495.58 473.69C495.93 473.67 496.15 473.66 496.24 473.66C496.24 473.66 521.44 472.95 532.03 472.66C534.84 472.58 536.62 472.53 536.62 472.53C536.62 472.53 536.62 472.53 536.62 472.53" id="dkTj6CImT"></path><path d="M41.84 530.39L62.81 528.66C63.92 528.57 64.61 528.52 64.89 528.5C78.98 527.42 93.16 528.09 107.09 530.5C107.11 530.5 107.14 530.5 107.19 530.51L128.21 531.46L149.23 532.41L171.34 529.31L192.33 528.92L214.52 529.85L236.68 529.43L256.49 527.72C265.76 528.17 271.56 528.46 273.87 528.57C275.51 528.65 277.16 528.53 278.76 528.2C282.7 527.41 278.35 528.29 278.85 528.19C291.82 525.58 305.12 525.03 318.26 526.56C318.27 526.56 318.28 526.56 318.31 526.56L340.47 526.15L361.49 527.1L383.68 528.02L405.84 527.61C405.85 527.61 405.85 527.61 405.85 527.61C419.77 526.46 433.78 527.08 447.54 529.45C447.61 529.46 443.46 528.75 447.63 529.46C447.8 529.49 447.97 529.51 448.14 529.5C452.29 529.43 448.71 529.49 448.91 529.49C448.91 529.49 488.61 526.07 488.61 526.07C488.61 526.07 488.63 526.06 488.66 526.06C488.66 526.06 488.67 526.06 488.67 526.06C502.6 524.91 516.62 525.24 530.48 527.06C531.29 527.16 533.3 527.43 536.53 527.85" id="hWvfjnmgz"></path><path d="M41.88 509.31C56.02 509.31 64.86 509.31 68.4 509.31C68.4 509.31 71.36 509.4 71.36 509.4C78.61 509.84 71.27 509.39 71.62 509.41C71.62 509.41 143.63 511.57 143.63 511.57C143.75 511.57 144.06 511.57 144.54 511.57C162.37 511.57 173.51 511.57 177.97 511.57C177.97 511.57 184.68 511.57 184.68 511.57C189.33 511.57 184.16 511.57 184.87 511.57C184.87 511.57 231.01 510.56 231.01 510.56C231.28 510.54 231.96 510.51 233.04 510.47C233.18 510.47 233.27 510.47 233.31 510.47C233.31 510.47 307.76 509.7 307.76 509.7C310.34 509.65 316.8 509.52 327.12 509.31L362.7 511.62L397.7 510.47L423.37 511.62L445.53 511.62L465.37 510.47L494.53 511.62C494.76 511.66 494.9 511.69 494.96 511.7C508.65 513.96 522.5 515.1 536.38 515.1C536.4 515.1 536.45 515.1 536.53 515.1" id="bgqDyHi3U"></path><path d="M41.4 437.48L136.39 437.48L136.39 538.27L41.4 538.27L41.4 437.48Z" id="c1sUOek5x0"></path><radialGradient id="gradientjo4OkMAMK" gradientUnits="userSpaceOnUse" cx="139.23" cy="526.56" dx="46.23" dy="449.2" r="120.97"><stop style="stop-color: #846529;stop-opacity: 1" offset="0%"></stop><stop style="stop-color: #010000;stop-opacity: 1" offset="100%"></stop></radialGradient><path d="M231.39 437.48L136.4 437.48L136.4 538.27L231.39 538.27L231.39 437.48Z" id="aH9Ummn5u"></path><radialGradient id="gradienta7OAtfzOw" gradientUnits="userSpaceOnUse" cx="133.56" cy="526.56" dx="226.56" dy="449.2" r="120.97"><stop style="stop-color: #846529;stop-opacity: 1" offset="0%"></stop><stop style="stop-color: #010000;stop-opacity: 1" offset="100%"></stop></radialGradient><path d="M231.4 437.48L326.39 437.48L326.39 538.26L231.4 538.26L231.4 437.48Z" id="d1iwiu2aFJ"></path><radialGradient id="gradientd5E5BZrIyl" gradientUnits="userSpaceOnUse" cx="329.23" cy="526.55" dx="236.23" dy="449.19" r="120.97"><stop style="stop-color: #846529;stop-opacity: 1" offset="0%"></stop><stop style="stop-color: #010000;stop-opacity: 1" offset="100%"></stop></radialGradient><path d="M421.39 437.49L326.4 437.49L326.4 538.28L421.39 538.28L421.39 437.49Z" id="b20Ol2U4Mh"></path><radialGradient id="gradientablJZriEG" gradientUnits="userSpaceOnUse" cx="323.56" cy="526.57" dx="416.56" dy="449.21" r="120.97"><stop style="stop-color: #846529;stop-opacity: 1" offset="0%"></stop><stop style="stop-color: #010000;stop-opacity: 1" offset="100%"></stop></radialGradient><path d="M421.4 437.49L516.39 437.49L516.39 538.28L421.4 538.28L421.4 437.49Z" id="a47z3BE1gW"></path><radialGradient id="gradienth6GC1URur" gradientUnits="userSpaceOnUse" cx="519.23" cy="526.57" dx="426.23" dy="449.21" r="120.97"><stop style="stop-color: #846529;stop-opacity: 1" offset="0%"></stop><stop style="stop-color: #010000;stop-opacity: 1" offset="100%"></stop></radialGradient><path d="M536.88 437.51L536.92 437.51L536.95 437.52L536.98 437.54L537.01 437.55L537.04 437.56L537.07 437.58L537.1 437.59L537.13 437.61L537.15 437.63L537.18 437.65L537.21 437.67L537.23 437.69L537.26 437.71L537.28 437.73L537.3 437.75L537.33 437.78L537.35 437.8L537.37 437.83L537.38 437.86L537.4 437.88L537.42 437.91L537.44 437.94L537.45 437.97L537.46 438L537.48 438.03L537.49 438.06L537.5 438.1L537.51 438.13L537.51 438.16L537.52 438.2L537.52 438.23L537.53 438.26L537.53 438.3L537.53 438.33L537.53 537.41L537.53 537.45L537.53 537.48L537.52 537.52L537.52 537.55L537.51 537.58L537.51 537.62L537.5 537.65L537.49 537.68L537.48 537.71L537.46 537.74L537.45 537.77L537.44 537.8L537.42 537.83L537.4 537.86L537.38 537.89L537.37 537.92L537.35 537.94L537.33 537.97L537.3 537.99L537.28 538.02L537.26 538.04L537.23 538.06L537.21 538.08L537.18 538.1L537.15 538.12L537.13 538.14L537.1 538.15L537.07 538.17L537.04 538.18L537.01 538.2L536.98 538.21L536.95 538.22L536.92 538.23L536.88 538.24L536.85 538.25L536.82 538.25L536.78 538.26L536.75 538.26L536.71 538.26L536.68 538.26L516.4 538.26L516.4 437.49L536.8 437.49L536.82 437.49L536.85 437.5L536.85 437.5L536.88 437.51Z" id="c2gmWw04X"></path><radialGradient id="gradienta3hOIewVzu" gradientUnits="userSpaceOnUse" cx="515.77" cy="526.55" dx="595.46" dy="440.2" r="117.5"><stop style="stop-color: #846529;stop-opacity: 1" offset="0%"></stop><stop style="stop-color: #010000;stop-opacity: 1" offset="100%"></stop></radialGradient></defs><g><g><g><filter id="shadow3327284" x="33.88" y="428.49" width="513.65" height="119.78" filterUnits="userSpaceOnUse" primitiveUnits="userSpaceOnUse"><feFlood></feFlood><feComposite in2="SourceAlpha" operator="in"></feComposite><feGaussianBlur stdDeviation="1"></feGaussianBlur><feOffset dx="1" dy="1" result="afterOffset"></feOffset><feFlood flood-color="#000000" flood-opacity="0.5"></feFlood><feComposite in2="afterOffset" operator="in"></feComposite><feMorphology operator="dilate" radius="1"></feMorphology><feComposite in2="SourceAlpha" operator="out"></feComposite></filter><path d="M536.68 538.27C537.15 538.27 537.53 537.89 537.53 537.42C537.53 517.43 537.53 458.32 537.53 438.34C537.53 437.87 537.15 437.49 536.68 437.49C437.92 437.49 142.49 437.49 43.73 437.49C43.26 437.49 42.88 437.87 42.88 438.34C42.88 458.32 42.88 517.43 42.88 537.42C42.88 537.89 43.26 538.27 43.73 538.27C142.49 538.27 437.92 538.27 536.68 538.27Z" id="b1xnSQBiKO" fill="white" fill-opacity="1" filter="url(#shadow3327284)"></path></g><use xlink:href="#beUSJOwmd" opacity="1" fill="url(#gradientarWN0uAyi)"></use><g mask="url(#maska1JEzfe4M)"><use xlink:href="#beUSJOwmd" opacity="1" fill-opacity="0" stroke="#000000" stroke-width="4.53" stroke-opacity="1"></use></g></g><g><g><filter id="shadow15919760" x="32.97" y="441.64" width="512.65" height="25.98" filterUnits="userSpaceOnUse" primitiveUnits="userSpaceOnUse"><feFlood></feFlood><feComposite in2="SourceAlpha" operator="in"></feComposite><feGaussianBlur stdDeviation="1"></feGaussianBlur><feOffset dx="0" dy="1" result="afterOffset"></feOffset><feFlood flood-color="#000000" flood-opacity="0.5"></feFlood><feComposite in2="afterOffset" operator="in"></feComposite><feMorphology operator="dilate" radius="1"></feMorphology><feComposite in2="SourceAlpha" operator="out"></feComposite></filter><path d="M41.97 456.45L64.09 455.29L87.36 454.13C87.37 454.12 87.38 454.12 87.38 454.12C101.31 452.58 115.35 452.15 129.35 452.85C129.65 452.87 130.39 452.9 131.59 452.96L152.54 452.96L173.49 454.13L195.61 452.96L217.72 452.96L238.67 450.64L260.78 450.64L284.06 451.8L306.17 452.96L327.12 452.96L348.07 455.29C348.08 455.29 348.09 455.29 348.09 455.29C361.21 457.6 374.58 458.07 387.82 456.68C388.11 456.65 388.83 456.57 389.97 456.45L410.92 455.29L433.04 454.13L453.99 455.29L476.1 457.61L495.89 457.61L515.67 456.45L536.62 454.13" id="aaggHc94s" fill="none" stroke="white" filter="url(#shadow15919760)"></path></g><g><use xlink:href="#b1KZR8hLH" opacity="1" fill-opacity="0" stroke="#574600" stroke-width="2.67" stroke-opacity="1"></use></g></g><g><g><filter id="shadow802066" x="32.88" y="478.88" width="512.65" height="27.46" filterUnits="userSpaceOnUse" primitiveUnits="userSpaceOnUse"><feFlood></feFlood><feComposite in2="SourceAlpha" operator="in"></feComposite><feGaussianBlur stdDeviation="1"></feGaussianBlur><feOffset dx="0" dy="1" result="afterOffset"></feOffset><feFlood flood-color="#000000" flood-opacity="0.5"></feFlood><feComposite in2="afterOffset" operator="in"></feComposite><feMorphology operator="dilate" radius="1"></feMorphology><feComposite in2="SourceAlpha" operator="out"></feComposite></filter><path d="M41.88 494.59L62.88 495.93C63.99 495.99 64.68 496.03 64.96 496.05C79.07 496.86 93.23 495.93 107.12 493.26C107.13 493.26 107.16 493.26 107.21 493.25L128.21 491.9L149.21 490.56L171.38 493.25L192.37 493.25L214.54 491.9L236.71 491.9L256.54 493.25C265.8 492.62 271.59 492.23 273.91 492.07C275.54 491.96 277.19 492.05 278.8 492.35C282.75 493.06 278.39 492.27 278.89 492.36C291.91 494.73 305.22 495.03 318.33 493.25C318.33 493.25 318.35 493.25 318.37 493.25L340.54 493.25L361.54 491.9L383.7 490.56L405.87 490.56C405.87 490.56 405.88 490.56 405.88 490.56C419.81 491.45 433.81 490.57 447.52 487.94C447.59 487.93 443.46 488.72 447.61 487.93C447.78 487.89 447.95 487.88 448.12 487.88C452.27 487.88 448.69 487.88 448.9 487.88C448.9 487.88 488.65 490.56 488.65 490.56C488.65 490.56 488.67 490.56 488.7 490.56C488.71 490.56 488.71 490.56 488.71 490.56C502.66 491.45 516.67 490.86 530.5 488.78C531.3 488.66 533.31 488.36 536.53 487.88" id="b60NNWppyR" fill="none" stroke="white" filter="url(#shadow802066)"></path></g><g><use xlink:href="#bLW8IihV4" opacity="1" fill-opacity="0" stroke="#5a4800" stroke-width="3.4" stroke-opacity="1"></use></g></g><g><g><filter id="shadow3960306" x="32.97" y="456.55" width="512.65" height="28.3" filterUnits="userSpaceOnUse" primitiveUnits="userSpaceOnUse"><feFlood></feFlood><feComposite in2="SourceAlpha" operator="in"></feComposite><feGaussianBlur stdDeviation="1"></feGaussianBlur><feOffset dx="0" dy="1" result="afterOffset"></feOffset><feFlood flood-color="#000000" flood-opacity="0.5"></feFlood><feComposite in2="afterOffset" operator="in"></feComposite><feMorphology operator="dilate" radius="1"></feMorphology><feComposite in2="SourceAlpha" operator="out"></feComposite></filter><path d="M41.97 472.53L68.59 473.69L92.89 473.69L114.87 472.53L136.86 470.2L157.69 467.88L178.52 466.72L199.35 465.55L220.18 466.72L241.01 467.88L261.84 470.2L284.98 469.04L306.97 470.2L326.64 472.53L347.47 473.69L368.3 473.69L389.12 474.86L411.11 474.86L433.1 473.69L453.93 472.53L474.76 472.53L495.58 473.69C495.93 473.67 496.15 473.66 496.24 473.66C496.24 473.66 521.44 472.95 532.03 472.66C534.84 472.58 536.62 472.53 536.62 472.53C536.62 472.53 536.62 472.53 536.62 472.53" id="dpxEGb48R" fill="none" stroke="white" filter="url(#shadow3960306)"></path></g><g><use xlink:href="#dkTj6CImT" opacity="1" fill-opacity="0" stroke="#574600" stroke-width="1.67" stroke-opacity="1"></use></g></g><g><g><filter id="shadow6783474" x="32.84" y="516.39" width="513.69" height="26.02" filterUnits="userSpaceOnUse" primitiveUnits="userSpaceOnUse"><feFlood></feFlood><feComposite in2="SourceAlpha" operator="in"></feComposite><feGaussianBlur stdDeviation="1"></feGaussianBlur><feOffset dx="1" dy="1" result="afterOffset"></feOffset><feFlood flood-color="#000000" flood-opacity="0.5"></feFlood><feComposite in2="afterOffset" operator="in"></feComposite><feMorphology operator="dilate" radius="1"></feMorphology><feComposite in2="SourceAlpha" operator="out"></feComposite></filter><path d="M41.84 530.39L62.81 528.66C63.92 528.57 64.61 528.52 64.89 528.5C78.98 527.42 93.16 528.09 107.09 530.5C107.11 530.5 107.14 530.5 107.19 530.51L128.21 531.46L149.23 532.41L171.34 529.31L192.33 528.92L214.52 529.85L236.68 529.43L256.49 527.72C265.76 528.17 271.56 528.46 273.87 528.57C275.51 528.65 277.16 528.53 278.76 528.2C282.7 527.41 278.35 528.29 278.85 528.19C291.82 525.58 305.12 525.03 318.26 526.56C318.27 526.56 318.28 526.56 318.31 526.56L340.47 526.15L361.49 527.1L383.68 528.02L405.84 527.61C405.85 527.61 405.85 527.61 405.85 527.61C419.77 526.46 433.78 527.08 447.54 529.45C447.61 529.46 443.46 528.75 447.63 529.46C447.8 529.49 447.97 529.51 448.14 529.5C452.29 529.43 448.71 529.49 448.91 529.49C448.91 529.49 488.61 526.07 488.61 526.07C488.61 526.07 488.63 526.06 488.66 526.06C488.66 526.06 488.67 526.06 488.67 526.06C502.6 524.91 516.62 525.24 530.48 527.06C531.29 527.16 533.3 527.43 536.53 527.85" id="aTCa2Pw88" fill="none" stroke="white" filter="url(#shadow6783474)"></path></g><g><use xlink:href="#hWvfjnmgz" opacity="1" fill-opacity="0" stroke="#5a4800" stroke-width="3" stroke-opacity="1"></use></g></g><g><g><filter id="shadow15511610" x="32.88" y="500.31" width="513.65" height="24.79" filterUnits="userSpaceOnUse" primitiveUnits="userSpaceOnUse"><feFlood></feFlood><feComposite in2="SourceAlpha" operator="in"></feComposite><feGaussianBlur stdDeviation="1"></feGaussianBlur><feOffset dx="1" dy="1" result="afterOffset"></feOffset><feFlood flood-color="#000000" flood-opacity="0.5"></feFlood><feComposite in2="afterOffset" operator="in"></feComposite><feMorphology operator="dilate" radius="1"></feMorphology><feComposite in2="SourceAlpha" operator="out"></feComposite></filter><path d="M41.88 509.31C56.02 509.31 64.86 509.31 68.4 509.31C68.4 509.31 71.36 509.4 71.36 509.4C78.61 509.84 71.27 509.39 71.62 509.41C71.62 509.41 143.63 511.57 143.63 511.57C143.75 511.57 144.06 511.57 144.54 511.57C162.37 511.57 173.51 511.57 177.97 511.57C177.97 511.57 184.68 511.57 184.68 511.57C189.33 511.57 184.16 511.57 184.87 511.57C184.87 511.57 231.01 510.56 231.01 510.56C231.28 510.54 231.96 510.51 233.04 510.47C233.18 510.47 233.27 510.47 233.31 510.47C233.31 510.47 307.76 509.7 307.76 509.7C310.34 509.65 316.8 509.52 327.12 509.31L362.7 511.62L397.7 510.47L423.37 511.62L445.53 511.62L465.37 510.47L494.53 511.62C494.76 511.66 494.9 511.69 494.96 511.7C508.65 513.96 522.5 515.1 536.38 515.1C536.4 515.1 536.45 515.1 536.53 515.1" id="c1U5ohR3he" fill="none" stroke="white" filter="url(#shadow15511610)"></path></g><g><use xlink:href="#bgqDyHi3U" opacity="1" fill-opacity="0" stroke="#5a4800" stroke-width="1" stroke-opacity="1"></use></g></g><g><g><use xlink:href="#c1sUOek5x0" opacity="0.1" fill="url(#gradientjo4OkMAMK)"></use></g><g><use xlink:href="#aH9Ummn5u" opacity="0.1" fill="url(#gradienta7OAtfzOw)"></use></g><g><use xlink:href="#d1iwiu2aFJ" opacity="0.1" fill="url(#gradientd5E5BZrIyl)"></use></g><g><use xlink:href="#b20Ol2U4Mh" opacity="0.1" fill="url(#gradientablJZriEG)"></use></g><g><use xlink:href="#a47z3BE1gW" opacity="0.1" fill="url(#gradienth6GC1URur)"></use></g><g><use xlink:href="#c2gmWw04X" opacity="0.1" fill="url(#gradienta3hOIewVzu)"></use></g></g></g></svg>